<svg width="26" height="24" viewBox="0 0 26 24" fill="none" xmlns="http://www.w3.org/2000/svg">
<g clip-path="url(#clip0_151_5000)">
<path d="M0 2.78787C0 1.97978 0.282836 1.31311 0.848483 0.787878C1.41413 0.262618 2.1495 0 3.05454 0C3.94344 0 4.66261 0.258569 5.21211 0.775756C5.77776 1.30909 6.0606 2.00402 6.0606 2.8606C6.0606 3.63636 5.78586 4.2828 5.23635 4.79999C4.67071 5.33332 3.92727 5.59999 3.00606 5.59999H2.98181C2.09292 5.59999 1.37374 5.33332 0.824241 4.79999C0.274739 4.26666 0 3.59595 0 2.78787ZM0.315151 24V7.80605H5.69696V24H0.315151ZM8.67877 24H14.0606V14.9576C14.0606 14.3919 14.1252 13.9555 14.2545 13.6485C14.4808 13.099 14.8242 12.6343 15.2848 12.2545C15.7454 11.8747 16.3232 11.6848 17.0182 11.6848C18.8283 11.6848 19.7333 12.905 19.7333 15.3454V24H25.1151V14.7151C25.1151 12.3232 24.5495 10.5091 23.4181 9.27271C22.2868 8.03635 20.7919 7.41817 18.9333 7.41817C16.8485 7.41817 15.2242 8.31514 14.0606 10.1091V10.1576H14.0363L14.0606 10.1091V7.80605H8.67877C8.71109 8.32321 8.72726 9.93128 8.72726 12.6303C8.72726 15.3293 8.71109 19.1191 8.67877 24Z" fill="white"/>
</g>
<defs>
<clipPath id="clip0_151_5000">
<rect width="25.1151" height="24" fill="white"/>
</clipPath>
</defs>
</svg>
