<svg width="28" height="28" viewBox="0 0 28 28" fill="none" xmlns="http://www.w3.org/2000/svg">
<path d="M25.6667 6.76691C24.7898 7.14736 23.8624 7.39885 22.9134 7.51358C23.9146 6.91545 24.6649 5.97449 25.025 4.86524C24.0842 5.42532 23.0543 5.81992 21.98 6.03191C21.262 5.25325 20.3058 4.73492 19.2615 4.55824C18.2171 4.38155 17.1437 4.5565 16.2095 5.05563C15.2753 5.55477 14.5331 6.34986 14.0995 7.31622C13.6658 8.28258 13.5652 9.36553 13.8134 10.3952C11.911 10.299 10.0502 9.80369 8.3518 8.94142C6.65339 8.07914 5.15536 6.86922 3.95504 5.39024C3.53403 6.12544 3.31281 6.95804 3.31337 7.80524C3.31188 8.59202 3.50496 9.36696 3.87542 10.0611C4.24588 10.7552 4.78223 11.3469 5.43671 11.7836C4.67601 11.7629 3.93157 11.5588 3.26671 11.1886V11.2469C3.27241 12.3493 3.6587 13.4159 4.36024 14.2662C5.06178 15.1166 6.03551 15.6985 7.11671 15.9136C6.70051 16.0402 6.2684 16.107 5.83337 16.1119C5.53225 16.1084 5.23187 16.0811 4.93504 16.0302C5.24294 16.9785 5.83877 17.8072 6.63963 18.4011C7.44049 18.9949 8.40655 19.3244 9.40338 19.3436C7.72011 20.6681 5.64191 21.3909 3.50004 21.3969C3.11007 21.3982 2.7204 21.3748 2.33337 21.3269C4.52021 22.7389 7.06866 23.4884 9.67171 23.4852C11.468 23.5039 13.25 23.1644 14.9137 22.4867C16.5773 21.8089 18.0892 20.8064 19.3611 19.5378C20.633 18.2692 21.6393 16.7599 22.3214 15.098C23.0034 13.4361 23.3474 11.6549 23.3334 9.85858C23.3334 9.66024 23.3334 9.45024 23.3334 9.24024C24.2489 8.55752 25.0384 7.72057 25.6667 6.76691Z" fill="white"/>
</svg>
