<svg width="30" height="30" viewBox="0 0 30 30" fill="none" xmlns="http://www.w3.org/2000/svg">
<path d="M28.75 12.1378C28.8118 10.3487 28.4206 8.57287 27.6125 6.97535C27.0643 6.31984 26.3034 5.87748 25.4625 5.72535C21.9844 5.40975 18.4919 5.2804 15 5.33785C11.5208 5.27779 8.04092 5.40297 4.57503 5.71285C3.88981 5.83749 3.25568 6.1589 2.75003 6.63785C1.62503 7.67535 1.50003 9.45035 1.37503 10.9503C1.19367 13.6473 1.19367 16.3534 1.37503 19.0503C1.4112 19.8946 1.5369 20.7326 1.75003 21.5503C1.90075 22.1817 2.20569 22.7658 2.63753 23.2503C3.14662 23.7547 3.79551 24.0944 4.50003 24.2253C7.19493 24.558 9.91031 24.6959 12.625 24.6378C17 24.7003 20.8375 24.6378 25.375 24.2878C26.0969 24.1649 26.764 23.8248 27.2875 23.3128C27.6375 22.9627 27.8989 22.5342 28.05 22.0628C28.4971 20.6911 28.7166 19.2555 28.7 17.8128C28.75 17.1128 28.75 12.8878 28.75 12.1378ZM12.175 18.5628V10.8253L19.575 14.7128C17.5 15.8628 14.7625 17.1628 12.175 18.5628Z" fill="white"/>
</svg>
