<svg width="942" height="153" viewBox="0 0 942 153" fill="none" xmlns="http://www.w3.org/2000/svg">
<g opacity="0.3">
<mask id="path-1-outside-1_151_4805" maskUnits="userSpaceOnUse" x="-0.155518" y="0" width="942" height="142" fill="black">
<rect fill="white" x="-0.155518" width="942" height="142"/>
<path d="M38.3511 138.815L1.84448 3.18465H28.4943L57.152 118.789H50.2158L80.1512 3.18465H105.888L135.641 118.789H128.705L157.363 3.18465H184.013L147.506 138.815H119.031L88.9128 26.3056H96.9442L66.8263 138.815H38.3511Z"/>
<path d="M248.421 141C238.199 141 229.255 138.694 221.589 134.082C213.922 129.47 207.96 123.219 203.701 115.33C199.441 107.441 197.312 98.7026 197.312 89.1144C197.312 79.1621 199.441 70.3628 203.701 62.7165C208.081 54.9488 213.983 48.8197 221.406 44.329C228.951 39.8383 237.348 37.593 246.596 37.593C254.384 37.593 261.199 38.8674 267.04 41.4161C273.002 43.9649 278.052 47.4846 282.19 51.9753C286.327 56.466 289.491 61.6242 291.682 67.4499C293.872 73.1543 294.967 79.3442 294.967 86.0195C294.967 87.7187 294.845 89.4785 294.602 91.2991C294.48 93.1196 294.176 94.6974 293.689 96.0325H217.026V77.827H280.182L268.865 86.3836C269.96 80.8006 269.656 75.8244 267.952 71.4551C266.37 67.0858 263.693 63.6268 259.921 61.078C256.27 58.5293 251.829 57.2549 246.596 57.2549C241.607 57.2549 237.165 58.5293 233.271 61.078C229.377 63.5054 226.396 67.1465 224.327 72.0013C222.38 76.7347 221.65 82.4998 222.136 89.2965C221.65 95.365 222.441 100.766 224.509 105.499C226.7 110.111 229.864 113.692 234.001 116.241C238.26 118.789 243.128 120.064 248.604 120.064C254.08 120.064 258.704 118.911 262.476 116.605C266.37 114.299 269.413 111.204 271.603 107.32L290.951 116.787C289.004 121.52 285.962 125.707 281.825 129.348C277.687 132.99 272.759 135.842 267.04 137.905C261.442 139.968 255.236 141 248.421 141Z"/>
<path d="M323.234 138.815V1H347.146V138.815H323.234Z"/>
<path d="M379.365 138.815V1H403.277V138.815H379.365Z"/>
<path d="M501.39 141C491.655 141 482.65 139.24 474.375 135.72C466.222 132.201 459.042 127.285 452.836 120.974C446.752 114.663 442.006 107.259 438.598 98.7633C435.191 90.2674 433.487 80.9827 433.487 70.909C433.487 60.8353 435.13 51.5505 438.416 43.0546C441.823 34.4374 446.569 27.0338 452.653 20.844C458.86 14.5327 466.1 9.67793 474.375 6.27958C482.65 2.75986 491.655 1 501.39 1C511.125 1 519.826 2.63849 527.492 5.91548C535.28 9.19246 541.851 13.5618 547.206 19.0234C552.56 24.3637 556.393 30.2501 558.705 36.6827L536.436 47.0598C533.881 40.2631 529.561 34.6801 523.476 30.3108C517.392 25.8201 510.03 23.5748 501.39 23.5748C492.872 23.5748 485.327 25.5774 478.756 29.5826C472.306 33.5878 467.256 39.1101 463.605 46.1495C460.076 53.189 458.312 61.4421 458.312 70.909C458.312 80.3758 460.076 88.6896 463.605 95.8504C467.256 102.89 472.306 108.412 478.756 112.417C485.327 116.423 492.872 118.425 501.39 118.425C510.03 118.425 517.392 116.241 523.476 111.871C529.561 107.381 533.881 101.737 536.436 94.9402L558.705 105.317C556.393 111.75 552.56 117.697 547.206 123.159C541.851 128.499 535.28 132.808 527.492 136.085C519.826 139.361 511.125 141 501.39 141Z"/>
<path d="M633.764 141C624.028 141 615.145 138.755 607.114 134.264C599.204 129.773 592.876 123.644 588.13 115.876C583.506 108.109 581.194 99.2488 581.194 89.2965C581.194 79.3442 583.506 70.4842 588.13 62.7165C592.876 54.9488 599.204 48.8197 607.114 44.329C615.023 39.8383 623.907 37.593 633.764 37.593C643.499 37.593 652.321 39.8383 660.231 44.329C668.141 48.8197 674.408 54.9488 679.032 62.7165C683.778 70.3628 686.151 79.2228 686.151 89.2965C686.151 99.2488 683.778 108.109 679.032 115.876C674.286 123.644 667.958 129.773 660.048 134.264C652.138 138.755 643.377 141 633.764 141ZM633.764 119.153C639.118 119.153 643.803 117.879 647.819 115.33C651.956 112.782 655.181 109.262 657.493 104.771C659.927 100.159 661.143 95.0009 661.143 89.2965C661.143 83.4707 659.927 78.3732 657.493 74.0039C655.181 69.5132 651.956 65.9935 647.819 63.4447C643.803 60.7746 639.118 59.4395 633.764 59.4395C628.288 59.4395 623.481 60.7746 619.343 63.4447C615.206 65.9935 611.92 69.5132 609.487 74.0039C607.175 78.3732 606.018 83.4707 606.018 89.2965C606.018 95.0009 607.175 100.159 609.487 104.771C611.92 109.262 615.206 112.782 619.343 115.33C623.481 117.879 628.288 119.153 633.764 119.153Z"/>
<path d="M760.606 141C750.992 141 742.413 138.755 734.869 134.264C727.324 129.652 721.361 123.401 716.98 115.512C712.599 107.623 710.409 98.8847 710.409 89.2965C710.409 79.5869 712.599 70.8483 716.98 63.0806C721.361 55.313 727.324 49.1231 734.869 44.5111C742.535 39.899 751.053 37.593 760.423 37.593C767.968 37.593 774.661 39.1101 780.502 42.1443C786.465 45.0572 791.15 49.1838 794.557 54.5241L790.906 59.4395V1H814.818V138.815H792.184V119.7L794.739 124.433C791.332 129.773 786.586 133.9 780.502 136.813C774.417 139.604 767.785 141 760.606 141ZM763.161 119.153C768.637 119.153 773.444 117.879 777.581 115.33C781.719 112.782 784.943 109.262 787.255 104.771C789.689 100.28 790.906 95.1222 790.906 89.2965C790.906 83.5921 789.689 78.4946 787.255 74.0039C784.943 69.3918 781.719 65.8114 777.581 63.2627C773.444 60.7139 768.637 59.4395 763.161 59.4395C757.807 59.4395 753 60.7746 748.741 63.4447C744.482 65.9935 741.135 69.5132 738.702 74.0039C736.39 78.3732 735.234 83.4707 735.234 89.2965C735.234 95.1222 736.39 100.28 738.702 104.771C741.135 109.262 744.482 112.782 748.741 115.33C753 117.879 757.807 119.153 763.161 119.153Z"/>
<path d="M894.299 141C884.077 141 875.133 138.694 867.466 134.082C859.8 129.47 853.837 123.219 849.578 115.33C845.319 107.441 843.189 98.7026 843.189 89.1144C843.189 79.1621 845.319 70.3628 849.578 62.7165C853.959 54.9488 859.861 48.8197 867.284 44.329C874.828 39.8383 883.225 37.593 892.473 37.593C900.261 37.593 907.076 38.8674 912.917 41.4161C918.88 43.9649 923.93 47.4846 928.067 51.9753C932.205 56.466 935.368 61.6242 937.559 67.4499C939.749 73.1543 940.844 79.3442 940.844 86.0195C940.844 87.7187 940.723 89.4785 940.479 91.2991C940.358 93.1196 940.054 94.6974 939.567 96.0325H862.903V77.827H926.059L914.742 86.3836C915.837 80.8006 915.533 75.8244 913.83 71.4551C912.248 67.0858 909.57 63.6268 905.798 61.078C902.147 58.5293 897.706 57.2549 892.473 57.2549C887.484 57.2549 883.042 58.5293 879.148 61.078C875.254 63.5054 872.273 67.1465 870.204 72.0013C868.257 76.7347 867.527 82.4998 868.014 89.2965C867.527 95.365 868.318 100.766 870.387 105.499C872.577 110.111 875.741 113.692 879.878 116.241C884.138 118.789 889.005 120.064 894.481 120.064C899.957 120.064 904.581 118.911 908.354 116.605C912.248 114.299 915.29 111.204 917.48 107.32L936.829 116.787C934.882 121.52 931.839 125.707 927.702 129.348C923.565 132.99 918.636 135.842 912.917 137.905C907.319 139.968 901.113 141 894.299 141Z"/>
</mask>
<path d="M38.3511 138.815L1.84448 3.18465H28.4943L57.152 118.789H50.2158L80.1512 3.18465H105.888L135.641 118.789H128.705L157.363 3.18465H184.013L147.506 138.815H119.031L88.9128 26.3056H96.9442L66.8263 138.815H38.3511Z" stroke="url(#paint0_linear_151_4805)" stroke-width="2" mask="url(#path-1-outside-1_151_4805)"/>
<path d="M248.421 141C238.199 141 229.255 138.694 221.589 134.082C213.922 129.47 207.96 123.219 203.701 115.33C199.441 107.441 197.312 98.7026 197.312 89.1144C197.312 79.1621 199.441 70.3628 203.701 62.7165C208.081 54.9488 213.983 48.8197 221.406 44.329C228.951 39.8383 237.348 37.593 246.596 37.593C254.384 37.593 261.199 38.8674 267.04 41.4161C273.002 43.9649 278.052 47.4846 282.19 51.9753C286.327 56.466 289.491 61.6242 291.682 67.4499C293.872 73.1543 294.967 79.3442 294.967 86.0195C294.967 87.7187 294.845 89.4785 294.602 91.2991C294.48 93.1196 294.176 94.6974 293.689 96.0325H217.026V77.827H280.182L268.865 86.3836C269.96 80.8006 269.656 75.8244 267.952 71.4551C266.37 67.0858 263.693 63.6268 259.921 61.078C256.27 58.5293 251.829 57.2549 246.596 57.2549C241.607 57.2549 237.165 58.5293 233.271 61.078C229.377 63.5054 226.396 67.1465 224.327 72.0013C222.38 76.7347 221.65 82.4998 222.136 89.2965C221.65 95.365 222.441 100.766 224.509 105.499C226.7 110.111 229.864 113.692 234.001 116.241C238.26 118.789 243.128 120.064 248.604 120.064C254.08 120.064 258.704 118.911 262.476 116.605C266.37 114.299 269.413 111.204 271.603 107.32L290.951 116.787C289.004 121.52 285.962 125.707 281.825 129.348C277.687 132.99 272.759 135.842 267.04 137.905C261.442 139.968 255.236 141 248.421 141Z" stroke="url(#paint1_linear_151_4805)" stroke-width="2" mask="url(#path-1-outside-1_151_4805)"/>
<path d="M323.234 138.815V1H347.146V138.815H323.234Z" stroke="url(#paint2_linear_151_4805)" stroke-width="2" mask="url(#path-1-outside-1_151_4805)"/>
<path d="M379.365 138.815V1H403.277V138.815H379.365Z" stroke="url(#paint3_linear_151_4805)" stroke-width="2" mask="url(#path-1-outside-1_151_4805)"/>
<path d="M501.39 141C491.655 141 482.65 139.24 474.375 135.72C466.222 132.201 459.042 127.285 452.836 120.974C446.752 114.663 442.006 107.259 438.598 98.7633C435.191 90.2674 433.487 80.9827 433.487 70.909C433.487 60.8353 435.13 51.5505 438.416 43.0546C441.823 34.4374 446.569 27.0338 452.653 20.844C458.86 14.5327 466.1 9.67793 474.375 6.27958C482.65 2.75986 491.655 1 501.39 1C511.125 1 519.826 2.63849 527.492 5.91548C535.28 9.19246 541.851 13.5618 547.206 19.0234C552.56 24.3637 556.393 30.2501 558.705 36.6827L536.436 47.0598C533.881 40.2631 529.561 34.6801 523.476 30.3108C517.392 25.8201 510.03 23.5748 501.39 23.5748C492.872 23.5748 485.327 25.5774 478.756 29.5826C472.306 33.5878 467.256 39.1101 463.605 46.1495C460.076 53.189 458.312 61.4421 458.312 70.909C458.312 80.3758 460.076 88.6896 463.605 95.8504C467.256 102.89 472.306 108.412 478.756 112.417C485.327 116.423 492.872 118.425 501.39 118.425C510.03 118.425 517.392 116.241 523.476 111.871C529.561 107.381 533.881 101.737 536.436 94.9402L558.705 105.317C556.393 111.75 552.56 117.697 547.206 123.159C541.851 128.499 535.28 132.808 527.492 136.085C519.826 139.361 511.125 141 501.39 141Z" stroke="url(#paint4_linear_151_4805)" stroke-width="2" mask="url(#path-1-outside-1_151_4805)"/>
<path d="M633.764 141C624.028 141 615.145 138.755 607.114 134.264C599.204 129.773 592.876 123.644 588.13 115.876C583.506 108.109 581.194 99.2488 581.194 89.2965C581.194 79.3442 583.506 70.4842 588.13 62.7165C592.876 54.9488 599.204 48.8197 607.114 44.329C615.023 39.8383 623.907 37.593 633.764 37.593C643.499 37.593 652.321 39.8383 660.231 44.329C668.141 48.8197 674.408 54.9488 679.032 62.7165C683.778 70.3628 686.151 79.2228 686.151 89.2965C686.151 99.2488 683.778 108.109 679.032 115.876C674.286 123.644 667.958 129.773 660.048 134.264C652.138 138.755 643.377 141 633.764 141ZM633.764 119.153C639.118 119.153 643.803 117.879 647.819 115.33C651.956 112.782 655.181 109.262 657.493 104.771C659.927 100.159 661.143 95.0009 661.143 89.2965C661.143 83.4707 659.927 78.3732 657.493 74.0039C655.181 69.5132 651.956 65.9935 647.819 63.4447C643.803 60.7746 639.118 59.4395 633.764 59.4395C628.288 59.4395 623.481 60.7746 619.343 63.4447C615.206 65.9935 611.92 69.5132 609.487 74.0039C607.175 78.3732 606.018 83.4707 606.018 89.2965C606.018 95.0009 607.175 100.159 609.487 104.771C611.92 109.262 615.206 112.782 619.343 115.33C623.481 117.879 628.288 119.153 633.764 119.153Z" stroke="url(#paint5_linear_151_4805)" stroke-width="2" mask="url(#path-1-outside-1_151_4805)"/>
<path d="M760.606 141C750.992 141 742.413 138.755 734.869 134.264C727.324 129.652 721.361 123.401 716.98 115.512C712.599 107.623 710.409 98.8847 710.409 89.2965C710.409 79.5869 712.599 70.8483 716.98 63.0806C721.361 55.313 727.324 49.1231 734.869 44.5111C742.535 39.899 751.053 37.593 760.423 37.593C767.968 37.593 774.661 39.1101 780.502 42.1443C786.465 45.0572 791.15 49.1838 794.557 54.5241L790.906 59.4395V1H814.818V138.815H792.184V119.7L794.739 124.433C791.332 129.773 786.586 133.9 780.502 136.813C774.417 139.604 767.785 141 760.606 141ZM763.161 119.153C768.637 119.153 773.444 117.879 777.581 115.33C781.719 112.782 784.943 109.262 787.255 104.771C789.689 100.28 790.906 95.1222 790.906 89.2965C790.906 83.5921 789.689 78.4946 787.255 74.0039C784.943 69.3918 781.719 65.8114 777.581 63.2627C773.444 60.7139 768.637 59.4395 763.161 59.4395C757.807 59.4395 753 60.7746 748.741 63.4447C744.482 65.9935 741.135 69.5132 738.702 74.0039C736.39 78.3732 735.234 83.4707 735.234 89.2965C735.234 95.1222 736.39 100.28 738.702 104.771C741.135 109.262 744.482 112.782 748.741 115.33C753 117.879 757.807 119.153 763.161 119.153Z" stroke="url(#paint6_linear_151_4805)" stroke-width="2" mask="url(#path-1-outside-1_151_4805)"/>
<path d="M894.299 141C884.077 141 875.133 138.694 867.466 134.082C859.8 129.47 853.837 123.219 849.578 115.33C845.319 107.441 843.189 98.7026 843.189 89.1144C843.189 79.1621 845.319 70.3628 849.578 62.7165C853.959 54.9488 859.861 48.8197 867.284 44.329C874.828 39.8383 883.225 37.593 892.473 37.593C900.261 37.593 907.076 38.8674 912.917 41.4161C918.88 43.9649 923.93 47.4846 928.067 51.9753C932.205 56.466 935.368 61.6242 937.559 67.4499C939.749 73.1543 940.844 79.3442 940.844 86.0195C940.844 87.7187 940.723 89.4785 940.479 91.2991C940.358 93.1196 940.054 94.6974 939.567 96.0325H862.903V77.827H926.059L914.742 86.3836C915.837 80.8006 915.533 75.8244 913.83 71.4551C912.248 67.0858 909.57 63.6268 905.798 61.078C902.147 58.5293 897.706 57.2549 892.473 57.2549C887.484 57.2549 883.042 58.5293 879.148 61.078C875.254 63.5054 872.273 67.1465 870.204 72.0013C868.257 76.7347 867.527 82.4998 868.014 89.2965C867.527 95.365 868.318 100.766 870.387 105.499C872.577 110.111 875.741 113.692 879.878 116.241C884.138 118.789 889.005 120.064 894.481 120.064C899.957 120.064 904.581 118.911 908.354 116.605C912.248 114.299 915.29 111.204 917.48 107.32L936.829 116.787C934.882 121.52 931.839 125.707 927.702 129.348C923.565 132.99 918.636 135.842 912.917 137.905C907.319 139.968 901.113 141 894.299 141Z" stroke="url(#paint7_linear_151_4805)" stroke-width="2" mask="url(#path-1-outside-1_151_4805)"/>
</g>
<path d="M233.187 142V101.025H260.742V108.45H241.712V117.745H259.642V125.17H241.712V134.575H260.742V142H233.187ZM281.71 142.66C278.703 142.66 275.99 141.982 273.57 140.625C271.186 139.232 269.28 137.343 267.85 134.96C266.456 132.577 265.76 129.9 265.76 126.93C265.76 123.96 266.456 121.302 267.85 118.955C269.243 116.572 271.15 114.702 273.57 113.345C275.99 111.988 278.703 111.31 281.71 111.31C283.946 111.31 286.018 111.695 287.925 112.465C289.831 113.235 291.463 114.317 292.82 115.71C294.176 117.067 295.148 118.68 295.735 120.55L288.585 123.63C288.071 122.127 287.191 120.935 285.945 120.055C284.735 119.175 283.323 118.735 281.71 118.735C280.28 118.735 278.996 119.083 277.86 119.78C276.76 120.477 275.88 121.448 275.22 122.695C274.596 123.942 274.285 125.372 274.285 126.985C274.285 128.598 274.596 130.028 275.22 131.275C275.88 132.522 276.76 133.493 277.86 134.19C278.996 134.887 280.28 135.235 281.71 135.235C283.36 135.235 284.79 134.795 286 133.915C287.21 133.035 288.071 131.843 288.585 130.34L295.735 133.475C295.185 135.235 294.231 136.812 292.875 138.205C291.518 139.598 289.886 140.698 287.98 141.505C286.073 142.275 283.983 142.66 281.71 142.66ZM302.593 142V100.365H310.843V117.91L309.853 116.59C310.549 114.793 311.668 113.473 313.208 112.63C314.784 111.75 316.618 111.31 318.708 111.31C320.981 111.31 322.961 111.787 324.648 112.74C326.371 113.693 327.709 115.032 328.663 116.755C329.616 118.442 330.093 120.422 330.093 122.695V142H321.843V124.455C321.843 123.282 321.604 122.273 321.128 121.43C320.688 120.587 320.046 119.927 319.203 119.45C318.396 118.973 317.443 118.735 316.343 118.735C315.279 118.735 314.326 118.973 313.483 119.45C312.639 119.927 311.979 120.587 311.503 121.43C311.063 122.273 310.843 123.282 310.843 124.455V142H302.593ZM337.517 142V111.97H345.767V142H337.517ZM337.517 109.275V101.025H345.767V109.275H337.517ZM353.805 153V111.97H361.505V117.69L360.79 116.04C361.78 114.537 363.118 113.382 364.805 112.575C366.528 111.732 368.49 111.31 370.69 111.31C373.55 111.31 376.135 112.007 378.445 113.4C380.755 114.793 382.588 116.682 383.945 119.065C385.301 121.412 385.98 124.052 385.98 126.985C385.98 129.882 385.301 132.522 383.945 134.905C382.625 137.288 380.81 139.177 378.5 140.57C376.19 141.963 373.568 142.66 370.635 142.66C368.581 142.66 366.675 142.293 364.915 141.56C363.191 140.79 361.798 139.672 360.735 138.205L362.055 136.5V153H353.805ZM369.645 135.235C371.185 135.235 372.541 134.887 373.715 134.19C374.888 133.493 375.805 132.522 376.465 131.275C377.125 130.028 377.455 128.598 377.455 126.985C377.455 125.372 377.125 123.96 376.465 122.75C375.805 121.503 374.888 120.532 373.715 119.835C372.541 119.102 371.185 118.735 369.645 118.735C368.178 118.735 366.858 119.083 365.685 119.78C364.548 120.477 363.65 121.448 362.99 122.695C362.366 123.942 362.055 125.372 362.055 126.985C362.055 128.598 362.366 130.028 362.99 131.275C363.65 132.522 364.548 133.493 365.685 134.19C366.858 134.887 368.178 135.235 369.645 135.235ZM402.106 142.66C399.943 142.66 398.073 142.312 396.496 141.615C394.92 140.918 393.71 139.928 392.866 138.645C392.023 137.325 391.601 135.767 391.601 133.97C391.601 132.283 391.986 130.798 392.756 129.515C393.526 128.195 394.7 127.095 396.276 126.215C397.89 125.335 399.888 124.712 402.271 124.345L411.456 122.86V128.91L403.756 130.285C402.583 130.505 401.685 130.89 401.061 131.44C400.438 131.953 400.126 132.705 400.126 133.695C400.126 134.612 400.475 135.327 401.171 135.84C401.868 136.353 402.73 136.61 403.756 136.61C405.113 136.61 406.305 136.317 407.331 135.73C408.358 135.143 409.146 134.355 409.696 133.365C410.283 132.338 410.576 131.22 410.576 130.01V122.2C410.576 121.063 410.118 120.11 409.201 119.34C408.321 118.57 407.111 118.185 405.571 118.185C404.105 118.185 402.803 118.588 401.666 119.395C400.566 120.202 399.76 121.265 399.246 122.585L392.646 119.45C393.233 117.763 394.168 116.315 395.451 115.105C396.735 113.895 398.275 112.96 400.071 112.3C401.868 111.64 403.83 111.31 405.956 111.31C408.486 111.31 410.723 111.768 412.666 112.685C414.61 113.602 416.113 114.885 417.176 116.535C418.276 118.148 418.826 120.037 418.826 122.2V142H411.126V137.16L412.996 136.83C412.116 138.15 411.145 139.25 410.081 140.13C409.018 140.973 407.826 141.597 406.506 142C405.186 142.44 403.72 142.66 402.106 142.66ZM447.065 142L436.34 101.025H445.58L453.665 135.345H451.19L459.715 101.025H468.515L477.04 135.345H474.565L482.65 101.025H491.89L481.165 142H471.265L462.685 109H465.545L456.965 142H447.065ZM510.332 142.66C507.142 142.66 504.374 141.963 502.027 140.57C499.68 139.14 497.865 137.233 496.582 134.85C495.299 132.467 494.657 129.827 494.657 126.93C494.657 123.923 495.317 121.247 496.637 118.9C497.994 116.553 499.809 114.702 502.082 113.345C504.355 111.988 506.922 111.31 509.782 111.31C512.165 111.31 514.274 111.695 516.107 112.465C517.94 113.198 519.48 114.243 520.727 115.6C522.01 116.957 522.982 118.533 523.642 120.33C524.302 122.09 524.632 124.015 524.632 126.105C524.632 126.692 524.595 127.278 524.522 127.865C524.485 128.415 524.394 128.892 524.247 129.295H501.752V123.245H519.572L515.667 126.105C516.034 124.528 516.015 123.135 515.612 121.925C515.209 120.678 514.494 119.707 513.467 119.01C512.477 118.277 511.249 117.91 509.782 117.91C508.352 117.91 507.124 118.258 506.097 118.955C505.07 119.652 504.3 120.678 503.787 122.035C503.274 123.392 503.072 125.042 503.182 126.985C503.035 128.672 503.237 130.157 503.787 131.44C504.337 132.723 505.18 133.732 506.317 134.465C507.454 135.162 508.829 135.51 510.442 135.51C511.909 135.51 513.155 135.217 514.182 134.63C515.245 134.043 516.07 133.237 516.657 132.21L523.257 135.345C522.67 136.812 521.735 138.095 520.452 139.195C519.205 140.295 517.72 141.157 515.997 141.78C514.274 142.367 512.385 142.66 510.332 142.66ZM531.49 142V100.365H539.74V142H531.49ZM547.777 142V100.365H556.027V142H547.777ZM584.139 142.66C581.206 142.66 578.474 142.128 575.944 141.065C573.451 140.002 571.269 138.517 569.399 136.61C567.529 134.703 566.063 132.467 564.999 129.9C563.973 127.333 563.459 124.528 563.459 121.485C563.459 118.442 563.973 115.637 564.999 113.07C566.026 110.467 567.474 108.23 569.344 106.36C571.214 104.453 573.396 102.987 575.889 101.96C578.419 100.897 581.169 100.365 584.139 100.365C587.109 100.365 589.768 100.86 592.114 101.85C594.498 102.84 596.514 104.16 598.164 105.81C599.814 107.46 600.988 109.293 601.684 111.31L594.149 114.94C593.453 112.96 592.224 111.328 590.464 110.045C588.741 108.725 586.633 108.065 584.139 108.065C581.719 108.065 579.593 108.633 577.759 109.77C575.926 110.907 574.496 112.483 573.469 114.5C572.479 116.48 571.984 118.808 571.984 121.485C571.984 124.162 572.479 126.508 573.469 128.525C574.496 130.542 575.926 132.118 577.759 133.255C579.593 134.392 581.719 134.96 584.139 134.96C586.633 134.96 588.741 134.318 590.464 133.035C592.224 131.715 593.453 130.065 594.149 128.085L601.684 131.715C600.988 133.732 599.814 135.565 598.164 137.215C596.514 138.865 594.498 140.185 592.114 141.175C589.768 142.165 587.109 142.66 584.139 142.66ZM622.918 142.66C619.948 142.66 617.234 141.982 614.778 140.625C612.358 139.268 610.414 137.417 608.948 135.07C607.518 132.687 606.803 129.992 606.803 126.985C606.803 123.942 607.518 121.247 608.948 118.9C610.414 116.553 612.358 114.702 614.778 113.345C617.234 111.988 619.948 111.31 622.918 111.31C625.888 111.31 628.583 111.988 631.003 113.345C633.423 114.702 635.348 116.553 636.778 118.9C638.244 121.247 638.978 123.942 638.978 126.985C638.978 129.992 638.244 132.687 636.778 135.07C635.348 137.417 633.423 139.268 631.003 140.625C628.583 141.982 625.888 142.66 622.918 142.66ZM622.918 135.235C624.421 135.235 625.723 134.887 626.823 134.19C627.959 133.493 628.839 132.522 629.463 131.275C630.123 130.028 630.453 128.598 630.453 126.985C630.453 125.372 630.123 123.96 629.463 122.75C628.839 121.503 627.959 120.532 626.823 119.835C625.723 119.102 624.421 118.735 622.918 118.735C621.414 118.735 620.094 119.102 618.958 119.835C617.821 120.532 616.923 121.503 616.263 122.75C615.639 123.96 615.328 125.372 615.328 126.985C615.328 128.598 615.639 130.028 616.263 131.275C616.923 132.522 617.821 133.493 618.958 134.19C620.094 134.887 621.414 135.235 622.918 135.235ZM659.973 142.66C657.039 142.66 654.418 141.963 652.108 140.57C649.798 139.177 647.964 137.288 646.608 134.905C645.288 132.522 644.628 129.882 644.628 126.985C644.628 124.052 645.306 121.412 646.663 119.065C648.019 116.682 649.853 114.793 652.163 113.4C654.473 112.007 657.058 111.31 659.918 111.31C662.118 111.31 664.061 111.732 665.748 112.575C667.471 113.382 668.828 114.537 669.818 116.04L668.553 117.69V100.365H676.803V142H669.103V136.5L669.873 138.205C668.846 139.672 667.453 140.79 665.693 141.56C663.933 142.293 662.026 142.66 659.973 142.66ZM660.963 135.235C662.466 135.235 663.786 134.887 664.923 134.19C666.059 133.493 666.939 132.522 667.563 131.275C668.223 130.028 668.553 128.598 668.553 126.985C668.553 125.372 668.223 123.942 667.563 122.695C666.939 121.448 666.059 120.477 664.923 119.78C663.786 119.083 662.466 118.735 660.963 118.735C659.459 118.735 658.103 119.102 656.893 119.835C655.719 120.532 654.803 121.503 654.143 122.75C653.483 123.96 653.153 125.372 653.153 126.985C653.153 128.598 653.483 130.028 654.143 131.275C654.803 132.522 655.719 133.493 656.893 134.19C658.103 134.887 659.459 135.235 660.963 135.235ZM699.31 142.66C696.12 142.66 693.351 141.963 691.005 140.57C688.658 139.14 686.843 137.233 685.56 134.85C684.276 132.467 683.635 129.827 683.635 126.93C683.635 123.923 684.295 121.247 685.615 118.9C686.971 116.553 688.786 114.702 691.06 113.345C693.333 111.988 695.9 111.31 698.76 111.31C701.143 111.31 703.251 111.695 705.085 112.465C706.918 113.198 708.458 114.243 709.705 115.6C710.988 116.957 711.96 118.533 712.62 120.33C713.28 122.09 713.61 124.015 713.61 126.105C713.61 126.692 713.573 127.278 713.5 127.865C713.463 128.415 713.371 128.892 713.225 129.295H690.73V123.245H708.55L704.645 126.105C705.011 124.528 704.993 123.135 704.59 121.925C704.186 120.678 703.471 119.707 702.445 119.01C701.455 118.277 700.226 117.91 698.76 117.91C697.33 117.91 696.101 118.258 695.075 118.955C694.048 119.652 693.278 120.678 692.765 122.035C692.251 123.392 692.05 125.042 692.16 126.985C692.013 128.672 692.215 130.157 692.765 131.44C693.315 132.723 694.158 133.732 695.295 134.465C696.431 135.162 697.806 135.51 699.42 135.51C700.886 135.51 702.133 135.217 703.16 134.63C704.223 134.043 705.048 133.237 705.635 132.21L712.235 135.345C711.648 136.812 710.713 138.095 709.43 139.195C708.183 140.295 706.698 141.157 704.975 141.78C703.251 142.367 701.363 142.66 699.31 142.66Z" fill="white"/>
<defs>
<linearGradient id="paint0_linear_151_4805" x1="33.9776" y1="0.99994" x2="822.989" y2="329.654" gradientUnits="userSpaceOnUse">
<stop stop-color="#0079EA"/>
<stop offset="1" stop-color="#00DBC7"/>
</linearGradient>
<linearGradient id="paint1_linear_151_4805" x1="33.9776" y1="0.99994" x2="822.989" y2="329.654" gradientUnits="userSpaceOnUse">
<stop stop-color="#0079EA"/>
<stop offset="1" stop-color="#00DBC7"/>
</linearGradient>
<linearGradient id="paint2_linear_151_4805" x1="33.9776" y1="0.99994" x2="822.989" y2="329.654" gradientUnits="userSpaceOnUse">
<stop stop-color="#0079EA"/>
<stop offset="1" stop-color="#00DBC7"/>
</linearGradient>
<linearGradient id="paint3_linear_151_4805" x1="33.9776" y1="0.99994" x2="822.989" y2="329.654" gradientUnits="userSpaceOnUse">
<stop stop-color="#0079EA"/>
<stop offset="1" stop-color="#00DBC7"/>
</linearGradient>
<linearGradient id="paint4_linear_151_4805" x1="33.9776" y1="0.99994" x2="822.989" y2="329.654" gradientUnits="userSpaceOnUse">
<stop stop-color="#0079EA"/>
<stop offset="1" stop-color="#00DBC7"/>
</linearGradient>
<linearGradient id="paint5_linear_151_4805" x1="33.9776" y1="0.99994" x2="822.989" y2="329.654" gradientUnits="userSpaceOnUse">
<stop stop-color="#0079EA"/>
<stop offset="1" stop-color="#00DBC7"/>
</linearGradient>
<linearGradient id="paint6_linear_151_4805" x1="33.9776" y1="0.99994" x2="822.989" y2="329.654" gradientUnits="userSpaceOnUse">
<stop stop-color="#0079EA"/>
<stop offset="1" stop-color="#00DBC7"/>
</linearGradient>
<linearGradient id="paint7_linear_151_4805" x1="33.9776" y1="0.99994" x2="822.989" y2="329.654" gradientUnits="userSpaceOnUse">
<stop stop-color="#0079EA"/>
<stop offset="1" stop-color="#00DBC7"/>
</linearGradient>
</defs>
</svg>
