<svg width="174" height="102" viewBox="0 0 174 102" fill="none" xmlns="http://www.w3.org/2000/svg">
<g clip-path="url(#clip0_151_4780)">
<mask id="mask0_151_4780" style="mask-type:luminance" maskUnits="userSpaceOnUse" x="5" y="2" width="77" height="98">
<path d="M10.8544 57.2401V48.246C10.8727 47.8695 10.8143 47.4931 10.6828 47.1398C10.5513 46.7865 10.3494 46.4636 10.0894 46.1907C9.82937 45.9177 9.51663 45.7004 9.17013 45.552C8.82363 45.4035 8.45058 45.3269 8.0736 45.3269C7.69663 45.3269 7.32358 45.4035 6.97708 45.552C6.63057 45.7004 6.31783 45.9177 6.05781 46.1907C5.7978 46.4636 5.59592 46.7865 5.46442 47.1398C5.33292 47.4931 5.27455 47.8695 5.29283 48.246V57.2401C5.27455 57.6167 5.33292 57.993 5.46442 58.3463C5.59592 58.6996 5.7978 59.0225 6.05781 59.2954C6.31783 59.5684 6.63057 59.7857 6.97708 59.9341C7.32358 60.0826 7.69663 60.1592 8.0736 60.1592C8.45058 60.1592 8.82363 60.0826 9.17013 59.9341C9.51663 59.7857 9.82937 59.5684 10.0894 59.2954C10.3494 59.0225 10.5513 58.6996 10.6828 58.3463C10.8143 57.993 10.8727 57.6167 10.8544 57.2401ZM9.36082 40.8633C9.91309 40.8685 10.4544 40.7093 10.916 40.406C11.3775 40.1027 11.7384 39.669 11.9528 39.1599C12.1672 38.6509 12.2253 38.0897 12.1198 37.5475C12.0143 37.0054 11.7499 36.5069 11.3603 36.1155C10.9707 35.724 10.4734 35.4573 9.9318 35.3492C9.39018 35.2411 8.82865 35.2966 8.31863 35.5085C7.80862 35.7205 7.37316 36.0793 7.06765 36.5394C6.76215 36.9995 6.60039 37.5401 6.60297 38.0924C6.60294 38.8263 6.89266 39.5304 7.40911 40.0518C7.92557 40.5732 8.62699 40.8695 9.36082 40.8764V40.8633ZM17.8767 56.7292C18.6142 56.7593 19.3334 56.4954 19.8764 55.9955C20.4193 55.4955 20.7415 54.8004 20.7722 54.063L21.139 45.0689C21.1104 44.3695 20.8188 43.7067 20.3226 43.213C19.8263 42.7194 19.1619 42.4313 18.4624 42.4065C17.7628 42.3817 17.0797 42.6219 16.5496 43.0791C16.0196 43.5363 15.6817 44.1768 15.6036 44.8724L15.2303 53.8469C15.2018 54.5838 15.4663 55.3021 15.9659 55.8447C16.4655 56.3872 17.1596 56.7099 17.8964 56.7423L17.8767 56.7292ZM10.0159 64.0987C9.46498 64.0974 8.92607 64.2596 8.46737 64.5647C8.00868 64.8699 7.65082 65.3042 7.43909 65.8128C7.22737 66.3214 7.1713 66.8814 7.27798 67.4219C7.38467 67.9624 7.6493 68.4591 8.0384 68.8491C8.42749 69.2391 8.92355 69.5049 9.46378 69.6128C10.004 69.7208 10.5641 69.666 11.0732 69.4555C11.5823 69.245 12.0175 68.8882 12.3237 68.4302C12.6299 67.9722 12.7934 67.4337 12.7934 66.8828C12.7899 66.1478 12.496 65.444 11.9757 64.9249C11.4553 64.4058 10.7509 64.1135 10.0159 64.1118V64.0987ZM16.429 75.7262C15.8784 75.7262 15.3401 75.8895 14.8823 76.1954C14.4245 76.5013 14.0676 76.9361 13.8569 77.4449C13.6462 77.9536 13.5911 78.5134 13.6985 79.0534C13.8059 79.5935 14.0711 80.0895 14.4604 80.4789C14.8498 80.8683 15.3458 81.1334 15.8859 81.2408C16.4259 81.3483 16.9857 81.2931 17.4944 81.0824C18.0032 80.8717 18.438 80.5149 18.7439 80.057C19.0498 79.5992 19.2131 79.0609 19.2131 78.5103C19.2131 77.7719 18.9198 77.0638 18.3977 76.5417C17.8755 76.0195 17.1674 75.7262 16.429 75.7262ZM42.2585 9.85228L51.1478 8.47663C51.5236 8.43863 51.8878 8.32456 52.2181 8.14134C52.5485 7.95812 52.8381 7.70959 53.0693 7.41088C53.3005 7.11217 53.4686 6.76953 53.5632 6.40382C53.6577 6.0381 53.6769 5.65696 53.6195 5.2836C53.5621 4.91024 53.4293 4.55247 53.2292 4.23206C53.0292 3.91165 52.766 3.63531 52.4557 3.41986C52.1454 3.20441 51.7945 3.05436 51.4244 2.97884C51.0543 2.90332 50.6726 2.90391 50.3028 2.98058L41.4134 4.35623C41.0526 4.41172 40.7062 4.53774 40.394 4.7271C40.0818 4.91647 39.81 5.16546 39.5941 5.45987C39.3781 5.75429 39.2223 6.08835 39.1354 6.44299C39.0486 6.79763 39.0325 7.1659 39.0879 7.52677C39.1434 7.88765 39.2695 8.23406 39.4588 8.54623C39.6482 8.85841 39.8972 9.13022 40.1916 9.34617C40.486 9.56211 40.8201 9.71795 41.1747 9.80479C41.5293 9.89162 41.8976 9.90776 42.2585 9.85228ZM78.5756 15.6759C79.1263 15.6759 79.6645 15.5126 80.1224 15.2067C80.5802 14.9007 80.937 14.4659 81.1478 13.9572C81.3585 13.4485 81.4136 12.8887 81.3062 12.3487C81.1988 11.8086 80.9336 11.3125 80.5443 10.9232C80.1549 10.5338 79.6588 10.2687 79.1188 10.1612C78.5787 10.0538 78.0189 10.109 77.5102 10.3197C77.0015 10.5304 76.5667 10.8872 76.2608 11.3451C75.9549 11.8029 75.7916 12.3412 75.7916 12.8918C75.7916 13.6302 76.0849 14.3383 76.607 14.8604C77.1291 15.3825 77.8373 15.6759 78.5756 15.6759ZM60.3188 9.05964L69.0574 11.1952C69.7588 11.3278 70.4844 11.1859 71.0842 10.7989C71.684 10.4119 72.1122 9.80924 72.2804 9.11551C72.4485 8.42178 72.3438 7.68996 71.9879 7.07123C71.6319 6.4525 71.0518 5.99413 70.3676 5.79083L61.6289 3.6553C61.267 3.54778 60.887 3.51498 60.512 3.55892C60.1371 3.60286 59.7749 3.72261 59.4477 3.91088C59.1204 4.09916 58.8349 4.35204 58.6084 4.65413C58.382 4.95622 58.2193 5.30121 58.1304 5.66813C58.0414 6.03506 58.028 6.41624 58.091 6.78849C58.154 7.16075 58.292 7.51631 58.4967 7.83355C58.7014 8.15079 58.9685 8.42307 59.2818 8.63385C59.595 8.84463 59.9478 8.9895 60.3188 9.05964ZM36.6838 23.0389C37.2347 23.0402 37.7737 22.878 38.2324 22.5728C38.6911 22.2677 39.0489 21.8334 39.2606 21.3248C39.4724 20.8162 39.5284 20.2562 39.4217 19.7157C39.3151 19.1752 39.0504 18.6785 38.6613 18.2885C38.2722 17.8985 37.7762 17.6327 37.2359 17.5247C36.6957 17.4168 36.1356 17.4715 35.6265 17.6821C35.1174 17.8926 34.6822 18.2494 34.376 18.7074C34.0698 19.1654 33.9063 19.7039 33.9063 20.2548C33.9063 20.992 34.1988 21.6992 34.7194 22.2211C35.2401 22.743 35.9466 23.0371 36.6838 23.0389ZM22.4557 60.902C22.1545 60.2466 21.6108 59.7337 20.9391 59.4713C20.2673 59.2088 19.5199 59.2173 18.8542 59.4949C18.1886 59.7726 17.6567 60.2977 17.3705 60.9597C17.0843 61.6217 17.0662 62.3689 17.3199 63.0441L20.7853 71.3504C21.0864 72.0057 21.6301 72.5186 22.3019 72.7811C22.9737 73.0435 23.7211 73.035 24.3867 72.7574C25.0524 72.4797 25.5843 71.9546 25.8705 71.2926C26.1567 70.6306 26.1748 69.8834 25.921 69.2083L22.4557 60.902ZM22.364 20.34C22.9152 20.3413 23.4543 20.1789 23.9132 19.8735C24.372 19.5681 24.7299 19.1333 24.9414 18.6244C25.1529 18.1154 25.2086 17.555 25.1014 17.0144C24.9942 16.4737 24.7289 15.977 24.3391 15.5873C23.9494 15.1975 23.4527 14.9323 22.9121 14.825C22.3714 14.7178 21.8111 14.7735 21.3021 14.985C20.7931 15.1966 20.3584 15.5544 20.0529 16.0133C19.7475 16.4721 19.5852 17.0113 19.5865 17.5625C19.5865 18.2991 19.8791 19.0056 20.4 19.5265C20.9209 20.0473 21.6273 20.34 22.364 20.34ZM67.446 92.5812C66.8953 92.5812 66.3571 92.7445 65.8992 93.0504C65.4414 93.3563 65.0846 93.7911 64.8738 94.2999C64.6631 94.8086 64.608 95.3684 64.7154 95.9084C64.8228 96.4485 65.088 96.9445 65.4774 97.3339C65.8667 97.7232 66.3628 97.9884 66.9028 98.0958C67.4429 98.2032 68.0027 98.1481 68.5114 97.9374C69.0201 97.7267 69.4549 97.3698 69.7608 96.912C70.0667 96.4542 70.23 95.9159 70.23 95.3653C70.2309 94.9994 70.1595 94.637 70.0199 94.2988C69.8803 93.9607 69.6752 93.6534 69.4165 93.3947C69.1578 93.136 68.8506 92.931 68.5124 92.7914C68.1742 92.6518 67.8118 92.5803 67.446 92.5812ZM62.2054 14.0382C61.6548 14.0382 61.1165 14.2015 60.6587 14.5074C60.2008 14.8133 59.844 15.2481 59.6333 15.7568C59.4226 16.2655 59.3674 16.8253 59.4748 17.3654C59.5823 17.9054 59.8474 18.4015 60.2368 18.7909C60.6261 19.1802 61.1222 19.4454 61.6623 19.5528C62.2023 19.6602 62.7621 19.6051 63.2708 19.3944C63.7795 19.1836 64.2143 18.8268 64.5203 18.369C64.8262 17.9111 64.9895 17.3729 64.9895 16.8222C64.9903 16.4569 64.9191 16.0951 64.7799 15.7573C64.6407 15.4196 64.4363 15.1126 64.1783 14.854C63.9203 14.5954 63.6138 14.3902 63.2764 14.2502C62.939 14.1102 62.5773 14.0382 62.212 14.0382H62.2054ZM59.7554 83.4168C59.2048 83.4168 58.6665 83.58 58.2087 83.886C57.7509 84.1919 57.394 84.6267 57.1833 85.1354C56.9726 85.6441 56.9175 86.2039 57.0249 86.744C57.1323 87.284 57.3975 87.7801 57.7868 88.1694C58.1762 88.5588 58.6722 88.824 59.2123 88.9314C59.7523 89.0388 60.3121 88.9837 60.8209 88.7729C61.3296 88.5622 61.7644 88.2054 62.0703 87.7476C62.3762 87.2897 62.5395 86.7514 62.5395 86.2008C62.5395 85.4624 62.2462 84.7543 61.7241 84.2322C61.202 83.7101 60.4938 83.4168 59.7554 83.4168ZM78.2481 87.6747C77.6975 87.6747 77.1592 87.838 76.7014 88.1439C76.2435 88.4498 75.8867 88.8847 75.676 89.3934C75.4652 89.9021 75.4101 90.4619 75.5175 91.0019C75.625 91.542 75.8901 92.038 76.2795 92.4274C76.6688 92.8168 77.1649 93.0819 77.705 93.1893C78.245 93.2968 78.8048 93.2416 79.3135 93.0309C79.8222 92.8202 80.257 92.4633 80.563 92.0055C80.8689 91.5477 81.0322 91.0094 81.0322 90.4588C81.0322 89.7204 80.7388 89.0123 80.2167 88.4902C79.6946 87.968 78.9865 87.6747 78.2481 87.6747ZM79.9316 23.4319L72.5621 18.2568C71.954 17.8329 71.2024 17.6679 70.4727 17.7981C69.743 17.9284 69.0949 18.3431 68.671 18.9512C68.247 19.5593 68.0821 20.3109 68.2123 21.0406C68.3425 21.7703 68.7573 22.4184 69.3653 22.8423L76.7349 28.0108C77.3394 28.3977 78.0699 28.5361 78.7741 28.3973C79.4782 28.2584 80.1015 27.853 80.5139 27.2657C80.9264 26.6783 81.096 25.9544 80.9875 25.2449C80.879 24.5355 80.5007 23.8953 79.9316 23.4581V23.4319ZM77.9206 80.803C78.4715 80.8043 79.0104 80.6422 79.4691 80.337C79.9278 80.0319 80.2856 79.5975 80.4974 79.0889C80.7091 78.5803 80.7652 78.0203 80.6585 77.4799C80.5518 76.9394 80.2871 76.4427 79.898 76.0527C79.509 75.6627 79.0129 75.3969 78.4727 75.2889C77.9324 75.181 77.3723 75.2357 76.8632 75.4462C76.3541 75.6568 75.9189 76.0136 75.6127 76.4716C75.3065 76.9295 75.1431 77.4681 75.1431 78.019C75.1431 78.7562 75.4355 79.4634 75.9562 79.9853C76.4769 80.5072 77.1833 80.8013 77.9206 80.803ZM55.8054 15.2566C55.7494 14.8953 55.6229 14.5486 55.433 14.2361C55.2431 13.9237 54.9935 13.6518 54.6984 13.4359C54.4034 13.2199 54.0688 13.0642 53.7136 12.9776C53.3584 12.891 52.9896 12.8752 52.6283 12.9311L43.7324 14.3068C43.0027 14.4197 42.3478 14.8179 41.9117 15.4137C41.4755 16.0095 41.294 16.7542 41.4069 17.4839C41.5198 18.2135 41.918 18.8685 42.5138 19.3046C43.1096 19.7407 43.8543 19.9223 44.584 19.8094L53.4799 18.4337C54.2088 18.3191 54.8626 17.9206 55.2984 17.3252C55.7342 16.7298 55.9165 15.986 55.8054 15.2566ZM41.3217 81.5564L33.5264 77.056C33.2092 76.857 32.8552 76.724 32.4854 76.665C32.1156 76.606 31.7377 76.6222 31.3744 76.7126C31.011 76.803 30.6696 76.9658 30.3706 77.1912C30.0716 77.4166 29.8212 77.7001 29.6343 78.0245C29.4474 78.349 29.3278 78.7078 29.2828 79.0795C29.2378 79.4513 29.2682 79.8283 29.3723 80.188C29.4763 80.5477 29.6519 80.8827 29.8884 81.173C30.1249 81.4632 30.4176 81.7028 30.7489 81.8773L38.5377 86.3777C39.1762 86.7331 39.9289 86.8232 40.6333 86.6286C41.3377 86.434 41.9373 85.9702 42.3027 85.3373C42.6682 84.7045 42.7701 83.9533 42.5866 83.2459C42.4031 82.5386 41.9488 81.9317 41.3217 81.5564ZM56.8797 94.0027L47.8724 93.6424C47.5077 93.6274 47.1436 93.6843 46.8008 93.81C46.4581 93.9357 46.1434 94.1276 45.8749 94.3749C45.6063 94.6222 45.3891 94.9199 45.2356 95.2511C45.0821 95.5823 44.9954 95.9405 44.9803 96.3053C44.9653 96.67 45.0222 97.0342 45.1479 97.3769C45.2735 97.7197 45.4655 98.0343 45.7128 98.3029C45.96 98.5714 46.2578 98.7886 46.589 98.9421C46.9202 99.0956 47.2784 99.1824 47.6432 99.1974L56.6373 99.5708C57.3747 99.601 58.094 99.3371 58.6369 98.8371C59.1799 98.3372 59.5021 97.6421 59.5327 96.9047C59.5629 96.1666 59.2992 95.4466 58.7994 94.9027C58.2997 94.3587 57.6046 94.035 56.8666 94.0027H56.8797ZM36.6969 91.5921C36.1463 91.5921 35.608 91.7553 35.1502 92.0612C34.6924 92.3672 34.3355 92.802 34.1248 93.3107C33.9141 93.8194 33.859 94.3792 33.9664 94.9193C34.0738 95.4593 34.339 95.9554 34.7283 96.3447C35.1177 96.7341 35.6137 96.9992 36.1538 97.1067C36.6938 97.2141 37.2536 97.159 37.7623 96.9482C38.2711 96.7375 38.7059 96.3807 39.0118 95.9228C39.3177 95.465 39.481 94.9267 39.481 94.3761C39.481 94.0097 39.4085 93.6469 39.2677 93.3086C39.1269 92.9704 38.9205 92.6633 38.6605 92.4051C38.4005 92.147 38.092 91.9428 37.7528 91.8044C37.4135 91.6659 37.0502 91.596 36.6838 91.5986L36.6969 91.5921ZM26.6547 27.5851C26.3387 27.4018 25.9896 27.2827 25.6275 27.2346C25.2653 27.1864 24.8973 27.2102 24.5443 27.3045C24.1914 27.3988 23.8606 27.5618 23.5707 27.7842C23.2809 28.0066 23.0378 28.2839 22.8553 28.6004L18.3549 36.3958C17.9866 37.0344 17.8867 37.7931 18.077 38.5054C18.2674 39.2177 18.7325 39.8254 19.3703 40.1952C20.009 40.5635 20.7677 40.6635 21.48 40.4731C22.1922 40.2828 22.7999 39.8176 23.1697 39.1798L27.6701 31.3845C28.0384 30.7458 28.1383 29.9871 27.948 29.2748C27.7576 28.5625 27.2925 27.9548 26.6547 27.5851ZM46.9947 86.3646C46.9947 86.9152 47.1579 87.4535 47.4638 87.9113C47.7698 88.3692 48.2046 88.726 48.7133 88.9367C49.222 89.1474 49.7818 89.2026 50.3218 89.0951C50.8619 88.9877 51.358 88.7226 51.7473 88.3332C52.1367 87.9438 52.4018 87.4478 52.5093 86.9077C52.6167 86.3677 52.5616 85.8079 52.3508 85.2992C52.1401 84.7905 51.7833 84.3556 51.3254 84.0497C50.8676 83.7438 50.3293 83.5805 49.7787 83.5805C49.0403 83.5805 48.3322 83.8738 47.8101 84.396C47.288 84.9181 46.9947 85.6262 46.9947 86.3646Z" fill="white"/>
</mask>
<g mask="url(#mask0_151_4780)">
<path d="M87 1.52588e-05H0V101.981H87V1.52588e-05Z" fill="url(#paint0_linear_151_4780)"/>
</g>
<path d="M53.519 61.7863L49.451 46.6345H49.3986L45.3568 61.7863H42.9854L37.7449 43.3133H39.6446L44.1318 59.415H44.1842L48.5798 43.3133H50.3026L54.7178 59.3888H54.7702L59.2902 43.3133H61.1571L55.8707 61.7863H53.519Z" fill="white"/>
<path d="M65.4019 55.5959C65.521 56.9265 66.127 58.1663 67.1038 59.0778C68.0805 59.9892 69.3592 60.5082 70.6949 60.5351C71.7401 60.5568 72.7674 60.261 73.641 59.6868C74.5147 59.1125 75.1936 58.2868 75.5883 57.3187H77.4356C76.9946 58.5455 76.2256 59.6279 75.2123 60.448C74.199 61.2681 72.9801 61.7946 71.6884 61.9702C70.3966 62.1458 69.0814 61.9637 67.886 61.4438C66.6905 60.9238 65.6605 60.086 64.9081 59.0214C64.1558 57.9568 63.7098 56.7062 63.6187 55.4058C63.5277 54.1053 63.795 52.8048 64.3917 51.6457C64.9884 50.4867 65.8916 49.5135 67.003 48.832C68.1143 48.1506 69.3913 47.787 70.6949 47.7809C72.6058 47.8169 74.4265 48.6005 75.7663 49.9635C77.1061 51.3266 77.8583 53.1605 77.8614 55.0718C77.8614 55.2421 77.8614 55.419 77.8614 55.5959H65.4019ZM76.0403 54.0434C75.8702 52.7495 75.2355 51.5616 74.2545 50.7011C73.2734 49.8405 72.013 49.366 70.708 49.366C69.403 49.366 68.1425 49.8405 67.1615 50.7011C66.1804 51.5616 65.5458 52.7495 65.3757 54.0434H76.0403Z" fill="white"/>
<path d="M83.0039 61.7863V43.3133H84.753V61.7863H83.0039Z" fill="white"/>
<path d="M90.4915 61.7863V43.3133H92.2405V61.7863H90.4915Z" fill="white"/>
<path d="M111.414 50.3291C111.087 49.4004 110.484 48.594 109.685 48.0179C108.887 47.4418 107.931 47.1237 106.947 47.1062C103.999 47.1062 102.001 49.6282 102.001 52.4974C102.001 55.4911 104.051 57.9935 106.973 57.9935C108.847 57.9935 110.438 56.9388 111.414 54.8688H116.36C115.927 56.5168 115.069 58.0224 113.872 59.2352C112.675 60.448 111.181 61.3257 109.539 61.7805C107.897 62.2353 106.164 62.2513 104.514 61.827C102.863 61.4028 101.353 60.553 100.134 59.3626C99.1878 58.4476 98.4449 57.3436 97.9539 56.1223C97.463 54.901 97.2348 53.59 97.2845 52.2747C97.346 49.7839 98.3785 47.4157 100.162 45.6754C101.945 43.9351 104.337 42.9605 106.829 42.9596C109.185 42.8813 111.484 43.6929 113.268 45.2327C114.883 46.5052 115.992 48.3124 116.393 50.3291H111.414Z" fill="white"/>
<path d="M127.942 62.2121C126.491 62.1928 125.077 61.7453 123.879 60.9258C122.681 60.1064 121.752 58.9515 121.208 57.6059C120.664 56.2604 120.529 54.7841 120.821 53.3623C121.113 51.9405 121.818 50.6365 122.848 49.6139C123.877 48.5912 125.186 47.8954 126.61 47.6138C128.034 47.3321 129.509 47.4772 130.851 48.0307C132.193 48.5843 133.341 49.5217 134.152 50.7254C134.963 51.929 135.4 53.3454 135.41 54.7967C135.433 55.7814 135.256 56.7606 134.888 57.6745C134.521 58.5883 133.971 59.4176 133.272 60.1116C132.573 60.8056 131.74 61.3499 130.823 61.711C129.907 62.0722 128.926 62.2427 127.942 62.2121ZM131.263 54.8426C131.23 54.1924 131.006 53.5663 130.621 53.0418C130.235 52.5173 129.704 52.1174 129.094 51.8916C128.483 51.6659 127.82 51.6242 127.186 51.7717C126.551 51.9192 125.975 52.2495 125.526 52.7216C125.078 53.1937 124.778 53.787 124.664 54.4278C124.549 55.0687 124.625 55.7291 124.882 56.3271C125.139 56.9252 125.566 57.4348 126.11 57.7927C126.654 58.1506 127.291 58.3411 127.942 58.3407C128.846 58.3167 129.704 57.9348 130.326 57.2789C130.949 56.623 131.286 55.7467 131.263 54.8426Z" fill="white"/>
<path d="M150.719 61.7863V60.2862C149.946 61.5964 148.544 62.2514 146.572 62.2514C142.38 62.2514 139.635 59.035 139.635 54.8426C139.635 50.6501 142.452 47.473 146.5 47.473C147.256 47.447 148.009 47.5806 148.71 47.865C149.411 48.1494 150.044 48.5784 150.568 49.1238V43.3133H154.715V61.7863H150.719ZM150.719 54.7967C150.707 54.1063 150.492 53.4346 150.101 52.8658C149.709 52.2969 149.159 51.856 148.518 51.5983C147.878 51.3406 147.175 51.2775 146.499 51.417C145.823 51.5564 145.202 51.8922 144.716 52.3822C144.23 52.8723 143.898 53.4949 143.764 54.1722C143.629 54.8495 143.698 55.5514 143.96 56.1901C144.222 56.8288 144.667 57.376 145.239 57.7632C145.811 58.1503 146.484 58.3603 147.175 58.3669C147.648 58.3823 148.12 58.3005 148.561 58.1267C149.002 57.9529 149.402 57.6907 149.738 57.3563C150.074 57.0218 150.337 56.6222 150.513 56.182C150.688 55.7418 150.772 55.2704 150.758 54.7967H150.719Z" fill="white"/>
<path d="M163.519 56.1199C163.637 56.8878 164.039 57.5833 164.646 58.0686C165.252 58.5539 166.019 58.7936 166.794 58.7402C167.291 58.7552 167.784 58.6426 168.225 58.4133C168.667 58.184 169.042 57.8455 169.316 57.4301H173.561C172.251 60.45 169.716 62.2187 166.794 62.2187C165.824 62.2234 164.862 62.0369 163.964 61.67C163.065 61.303 162.248 60.7627 161.558 60.0799C160.869 59.3971 160.321 58.5852 159.945 57.6905C159.569 56.7958 159.373 55.8358 159.369 54.8655C159.364 53.8951 159.55 52.9333 159.917 52.035C160.284 51.1367 160.825 50.3195 161.508 49.63C162.19 48.9405 163.002 48.3922 163.897 48.0165C164.792 47.6408 165.752 47.445 166.722 47.4402C170.862 47.4402 174.033 50.7156 174.033 55.0063C174.04 55.3756 174.007 55.7447 173.934 56.1068L163.519 56.1199ZM169.86 53.3228C169.663 52.6398 169.25 52.0393 168.682 51.6118C168.114 51.1844 167.423 50.9532 166.712 50.9532C166.001 50.9532 165.31 51.1844 164.742 51.6118C164.174 52.0393 163.761 52.6398 163.564 53.3228H169.86Z" fill="white"/>
</g>
<defs>
<linearGradient id="paint0_linear_151_4780" x1="0" y1="50.9908" x2="87" y2="50.9908" gradientUnits="userSpaceOnUse">
<stop offset="0.08" stop-color="#0077EB"/>
<stop offset="0.45" stop-color="#00A9D9"/>
<stop offset="0.82" stop-color="#00D4CA"/>
<stop offset="1" stop-color="#00E4C4"/>
</linearGradient>
<clipPath id="clip0_151_4780">
<rect width="174" height="101.981" fill="white"/>
</clipPath>
</defs>
</svg>
