<svg width="545" height="83" viewBox="0 0 545 83" fill="none" xmlns="http://www.w3.org/2000/svg">
<g opacity="0.6">
<mask id="path-1-outside-1_151_4987" maskUnits="userSpaceOnUse" x="0" y="0" width="545" height="83" fill="black">
<rect fill="white" width="545" height="83"/>
<path d="M22.1109 80.6951L1 2.26333H16.4109L32.983 69.1146H28.9719L46.2828 2.26333H61.166L78.3713 69.1146H74.3602L90.9323 2.26333H106.343L85.2323 80.6951H68.7659L51.3494 15.6336H55.9938L38.5773 80.6951H22.1109Z"/>
<path d="M143.589 81.9585C137.678 81.9585 132.506 80.6249 128.073 77.9579C123.639 75.2909 120.191 71.6763 117.728 67.1143C115.265 62.5523 114.034 57.499 114.034 51.9543C114.034 46.1992 115.265 41.1108 117.728 36.6891C120.262 32.1973 123.675 28.6529 127.967 26.0561C132.33 23.4592 137.185 22.1608 142.534 22.1608C147.037 22.1608 150.978 22.8977 154.356 24.3716C157.804 25.8455 160.724 27.8809 163.117 30.4777C165.509 33.0746 167.339 36.0574 168.605 39.4263C169.872 42.725 170.505 46.3044 170.505 50.1646C170.505 51.1472 170.435 52.1649 170.294 53.2177C170.224 54.2705 170.048 55.1829 169.767 55.9549H125.434V45.4271H161.956L155.411 50.3752C156.045 47.1467 155.869 44.2691 154.883 41.7424C153.969 39.2158 152.42 37.2155 150.239 35.7416C148.128 34.2677 145.559 33.5308 142.534 33.5308C139.648 33.5308 137.08 34.2677 134.828 35.7416C132.576 37.1453 130.852 39.2509 129.656 42.0583C128.53 44.7955 128.108 48.1293 128.389 52.0596C128.108 55.5689 128.565 58.6921 129.762 61.4293C131.028 64.0964 132.858 66.1668 135.25 67.6407C137.713 69.1146 140.528 69.8515 143.695 69.8515C146.861 69.8515 149.535 69.1848 151.717 67.8513C153.969 66.5177 155.728 64.728 156.995 62.4821L168.183 67.9565C167.057 70.6938 165.298 73.1151 162.906 75.2207C160.513 77.3262 157.663 78.9756 154.356 80.1687C151.119 81.3619 147.53 81.9585 143.589 81.9585Z"/>
<path d="M186.852 80.6951V1H200.679V80.6951H186.852Z"/>
<path d="M219.311 80.6951V1H233.138V80.6951H219.311Z"/>
<path d="M289.874 81.9585C284.245 81.9585 279.038 80.9408 274.252 78.9054C269.538 76.87 265.386 74.0275 261.797 70.3779C258.279 66.7283 255.534 62.447 253.564 57.5341C251.593 52.6211 250.608 47.2519 250.608 41.4266C250.608 35.6012 251.558 30.2321 253.458 25.3191C255.429 20.336 258.173 16.0547 261.691 12.4753C265.28 8.82563 269.467 6.01823 274.252 4.05305C279.038 2.01768 284.245 1 289.874 1C295.504 1 300.535 1.9475 304.969 3.8425C309.472 5.73749 313.272 8.26415 316.369 11.4225C319.465 14.5106 321.681 17.9146 323.019 21.6344L310.141 27.6352C308.663 23.7049 306.165 20.4764 302.647 17.9497C299.128 15.3528 294.871 14.0544 289.874 14.0544C284.949 14.0544 280.586 15.2125 276.786 17.5286C273.056 19.8447 270.136 23.0381 268.025 27.1088C265.984 31.1796 264.964 35.9522 264.964 41.4266C264.964 46.901 265.984 51.7087 268.025 55.8496C270.136 59.9204 273.056 63.1138 276.786 65.4299C280.586 67.746 284.949 68.904 289.874 68.904C294.871 68.904 299.128 67.6407 302.647 65.1141C306.165 62.5172 308.663 59.2536 310.141 55.3232L323.019 61.324C321.681 65.0439 319.465 68.4829 316.369 71.6413C313.272 74.7294 309.472 77.221 304.969 79.116C300.535 81.011 295.504 81.9585 289.874 81.9585Z"/>
<path d="M366.423 81.9585C360.793 81.9585 355.656 80.66 351.012 78.0632C346.438 75.4663 342.779 71.922 340.034 67.4302C337.36 62.9383 336.023 57.8148 336.023 52.0596C336.023 46.3045 337.36 41.1809 340.034 36.6891C342.779 32.1973 346.438 28.6529 351.012 26.0561C355.586 23.4592 360.723 22.1608 366.423 22.1608C372.052 22.1608 377.154 23.4592 381.728 26.0561C386.302 28.6529 389.926 32.1973 392.6 36.6891C395.345 41.1108 396.717 46.2343 396.717 52.0596C396.717 57.8148 395.345 62.9383 392.6 67.4302C389.856 71.922 386.197 75.4663 381.623 78.0632C377.049 80.66 371.982 81.9585 366.423 81.9585ZM366.423 69.3251C369.519 69.3251 372.228 68.5882 374.551 67.1143C376.943 65.6404 378.808 63.6051 380.145 61.0082C381.552 58.3412 382.256 55.3583 382.256 52.0596C382.256 48.6907 381.552 45.743 380.145 43.2163C378.808 40.6195 376.943 38.5841 374.551 37.1102C372.228 35.5661 369.519 34.7941 366.423 34.7941C363.256 34.7941 360.477 35.5661 358.084 37.1102C355.691 38.5841 353.792 40.6195 352.384 43.2163C351.047 45.743 350.379 48.6907 350.379 52.0596C350.379 55.3583 351.047 58.3412 352.384 61.0082C353.792 63.6051 355.691 65.6404 358.084 67.1143C360.477 68.5882 363.256 69.3251 366.423 69.3251Z"/>
<path d="M439.772 81.9585C434.213 81.9585 429.252 80.66 424.889 78.0632C420.526 75.3962 417.078 71.7816 414.545 67.2196C412.012 62.6576 410.745 57.6042 410.745 52.0596C410.745 46.4448 412.012 41.3915 414.545 36.8997C417.078 32.4078 420.526 28.8284 424.889 26.1613C429.323 23.4943 434.248 22.1608 439.667 22.1608C444.03 22.1608 447.9 23.0381 451.278 24.7927C454.726 26.4772 457.435 28.8635 459.406 31.9516L457.294 34.7941V1H471.122V80.6951H458.033V69.641L459.511 72.3782C457.541 75.4663 454.796 77.8526 451.278 79.5371C447.759 81.1513 443.924 81.9585 439.772 81.9585ZM441.25 69.3251C444.417 69.3251 447.196 68.5882 449.589 67.1143C451.982 65.6404 453.846 63.6051 455.183 61.0082C456.591 58.4114 457.294 55.4285 457.294 52.0596C457.294 48.7609 456.591 45.8132 455.183 43.2163C453.846 40.5493 451.982 38.4788 449.589 37.0049C447.196 35.531 444.417 34.7941 441.25 34.7941C438.154 34.7941 435.374 35.5661 432.911 37.1102C430.448 38.5841 428.513 40.6195 427.106 43.2163C425.769 45.743 425.1 48.6907 425.1 52.0596C425.1 55.4285 425.769 58.4114 427.106 61.0082C428.513 63.6051 430.448 65.6404 432.911 67.1143C435.374 68.5882 438.154 69.3251 441.25 69.3251Z"/>
<path d="M517.084 81.9585C511.173 81.9585 506 80.6249 501.567 77.9579C497.134 75.2909 493.686 71.6763 491.223 67.1143C488.76 62.5523 487.528 57.499 487.528 51.9543C487.528 46.1992 488.76 41.1108 491.223 36.6891C493.756 32.1973 497.169 28.6529 501.462 26.0561C505.825 23.4592 510.68 22.1608 516.028 22.1608C520.532 22.1608 524.472 22.8977 527.85 24.3716C531.298 25.8455 534.219 27.8809 536.611 30.4777C539.004 33.0746 540.833 36.0574 542.1 39.4263C543.367 42.725 544 46.3044 544 50.1646C544 51.1472 543.93 52.1649 543.789 53.2177C543.719 54.2705 543.543 55.1829 543.261 55.9549H498.928V45.4271H535.45L528.906 50.3752C529.539 47.1467 529.363 44.2691 528.378 41.7424C527.463 39.2158 525.915 37.2155 523.734 35.7416C521.622 34.2677 519.054 33.5308 516.028 33.5308C513.143 33.5308 510.575 34.2677 508.323 35.7416C506.071 37.1453 504.347 39.2509 503.15 42.0583C502.025 44.7955 501.602 48.1293 501.884 52.0596C501.602 55.5689 502.06 58.6921 503.256 61.4293C504.523 64.0964 506.352 66.1668 508.745 67.6407C511.208 69.1146 514.023 69.8515 517.189 69.8515C520.356 69.8515 523.03 69.1848 525.211 67.8513C527.463 66.5177 529.222 64.728 530.489 62.4821L541.678 67.9565C540.552 70.6938 538.793 73.1151 536.4 75.2207C534.008 77.3262 531.158 78.9756 527.85 80.1687C524.613 81.3619 521.024 81.9585 517.084 81.9585Z"/>
</mask>
<path d="M22.1109 80.6951L1 2.26333H16.4109L32.983 69.1146H28.9719L46.2828 2.26333H61.166L78.3713 69.1146H74.3602L90.9323 2.26333H106.343L85.2323 80.6951H68.7659L51.3494 15.6336H55.9938L38.5773 80.6951H22.1109Z" stroke="url(#paint0_linear_151_4987)" stroke-width="1.15655" mask="url(#path-1-outside-1_151_4987)"/>
<path d="M143.589 81.9585C137.678 81.9585 132.506 80.6249 128.073 77.9579C123.639 75.2909 120.191 71.6763 117.728 67.1143C115.265 62.5523 114.034 57.499 114.034 51.9543C114.034 46.1992 115.265 41.1108 117.728 36.6891C120.262 32.1973 123.675 28.6529 127.967 26.0561C132.33 23.4592 137.185 22.1608 142.534 22.1608C147.037 22.1608 150.978 22.8977 154.356 24.3716C157.804 25.8455 160.724 27.8809 163.117 30.4777C165.509 33.0746 167.339 36.0574 168.605 39.4263C169.872 42.725 170.505 46.3044 170.505 50.1646C170.505 51.1472 170.435 52.1649 170.294 53.2177C170.224 54.2705 170.048 55.1829 169.767 55.9549H125.434V45.4271H161.956L155.411 50.3752C156.045 47.1467 155.869 44.2691 154.883 41.7424C153.969 39.2158 152.42 37.2155 150.239 35.7416C148.128 34.2677 145.559 33.5308 142.534 33.5308C139.648 33.5308 137.08 34.2677 134.828 35.7416C132.576 37.1453 130.852 39.2509 129.656 42.0583C128.53 44.7955 128.108 48.1293 128.389 52.0596C128.108 55.5689 128.565 58.6921 129.762 61.4293C131.028 64.0964 132.858 66.1668 135.25 67.6407C137.713 69.1146 140.528 69.8515 143.695 69.8515C146.861 69.8515 149.535 69.1848 151.717 67.8513C153.969 66.5177 155.728 64.728 156.995 62.4821L168.183 67.9565C167.057 70.6938 165.298 73.1151 162.906 75.2207C160.513 77.3262 157.663 78.9756 154.356 80.1687C151.119 81.3619 147.53 81.9585 143.589 81.9585Z" stroke="url(#paint1_linear_151_4987)" stroke-width="1.15655" mask="url(#path-1-outside-1_151_4987)"/>
<path d="M186.852 80.6951V1H200.679V80.6951H186.852Z" stroke="url(#paint2_linear_151_4987)" stroke-width="1.15655" mask="url(#path-1-outside-1_151_4987)"/>
<path d="M219.311 80.6951V1H233.138V80.6951H219.311Z" stroke="url(#paint3_linear_151_4987)" stroke-width="1.15655" mask="url(#path-1-outside-1_151_4987)"/>
<path d="M289.874 81.9585C284.245 81.9585 279.038 80.9408 274.252 78.9054C269.538 76.87 265.386 74.0275 261.797 70.3779C258.279 66.7283 255.534 62.447 253.564 57.5341C251.593 52.6211 250.608 47.2519 250.608 41.4266C250.608 35.6012 251.558 30.2321 253.458 25.3191C255.429 20.336 258.173 16.0547 261.691 12.4753C265.28 8.82563 269.467 6.01823 274.252 4.05305C279.038 2.01768 284.245 1 289.874 1C295.504 1 300.535 1.9475 304.969 3.8425C309.472 5.73749 313.272 8.26415 316.369 11.4225C319.465 14.5106 321.681 17.9146 323.019 21.6344L310.141 27.6352C308.663 23.7049 306.165 20.4764 302.647 17.9497C299.128 15.3528 294.871 14.0544 289.874 14.0544C284.949 14.0544 280.586 15.2125 276.786 17.5286C273.056 19.8447 270.136 23.0381 268.025 27.1088C265.984 31.1796 264.964 35.9522 264.964 41.4266C264.964 46.901 265.984 51.7087 268.025 55.8496C270.136 59.9204 273.056 63.1138 276.786 65.4299C280.586 67.746 284.949 68.904 289.874 68.904C294.871 68.904 299.128 67.6407 302.647 65.1141C306.165 62.5172 308.663 59.2536 310.141 55.3232L323.019 61.324C321.681 65.0439 319.465 68.4829 316.369 71.6413C313.272 74.7294 309.472 77.221 304.969 79.116C300.535 81.011 295.504 81.9585 289.874 81.9585Z" stroke="url(#paint4_linear_151_4987)" stroke-width="1.15655" mask="url(#path-1-outside-1_151_4987)"/>
<path d="M366.423 81.9585C360.793 81.9585 355.656 80.66 351.012 78.0632C346.438 75.4663 342.779 71.922 340.034 67.4302C337.36 62.9383 336.023 57.8148 336.023 52.0596C336.023 46.3045 337.36 41.1809 340.034 36.6891C342.779 32.1973 346.438 28.6529 351.012 26.0561C355.586 23.4592 360.723 22.1608 366.423 22.1608C372.052 22.1608 377.154 23.4592 381.728 26.0561C386.302 28.6529 389.926 32.1973 392.6 36.6891C395.345 41.1108 396.717 46.2343 396.717 52.0596C396.717 57.8148 395.345 62.9383 392.6 67.4302C389.856 71.922 386.197 75.4663 381.623 78.0632C377.049 80.66 371.982 81.9585 366.423 81.9585ZM366.423 69.3251C369.519 69.3251 372.228 68.5882 374.551 67.1143C376.943 65.6404 378.808 63.6051 380.145 61.0082C381.552 58.3412 382.256 55.3583 382.256 52.0596C382.256 48.6907 381.552 45.743 380.145 43.2163C378.808 40.6195 376.943 38.5841 374.551 37.1102C372.228 35.5661 369.519 34.7941 366.423 34.7941C363.256 34.7941 360.477 35.5661 358.084 37.1102C355.691 38.5841 353.792 40.6195 352.384 43.2163C351.047 45.743 350.379 48.6907 350.379 52.0596C350.379 55.3583 351.047 58.3412 352.384 61.0082C353.792 63.6051 355.691 65.6404 358.084 67.1143C360.477 68.5882 363.256 69.3251 366.423 69.3251Z" stroke="url(#paint5_linear_151_4987)" stroke-width="1.15655" mask="url(#path-1-outside-1_151_4987)"/>
<path d="M439.772 81.9585C434.213 81.9585 429.252 80.66 424.889 78.0632C420.526 75.3962 417.078 71.7816 414.545 67.2196C412.012 62.6576 410.745 57.6042 410.745 52.0596C410.745 46.4448 412.012 41.3915 414.545 36.8997C417.078 32.4078 420.526 28.8284 424.889 26.1613C429.323 23.4943 434.248 22.1608 439.667 22.1608C444.03 22.1608 447.9 23.0381 451.278 24.7927C454.726 26.4772 457.435 28.8635 459.406 31.9516L457.294 34.7941V1H471.122V80.6951H458.033V69.641L459.511 72.3782C457.541 75.4663 454.796 77.8526 451.278 79.5371C447.759 81.1513 443.924 81.9585 439.772 81.9585ZM441.25 69.3251C444.417 69.3251 447.196 68.5882 449.589 67.1143C451.982 65.6404 453.846 63.6051 455.183 61.0082C456.591 58.4114 457.294 55.4285 457.294 52.0596C457.294 48.7609 456.591 45.8132 455.183 43.2163C453.846 40.5493 451.982 38.4788 449.589 37.0049C447.196 35.531 444.417 34.7941 441.25 34.7941C438.154 34.7941 435.374 35.5661 432.911 37.1102C430.448 38.5841 428.513 40.6195 427.106 43.2163C425.769 45.743 425.1 48.6907 425.1 52.0596C425.1 55.4285 425.769 58.4114 427.106 61.0082C428.513 63.6051 430.448 65.6404 432.911 67.1143C435.374 68.5882 438.154 69.3251 441.25 69.3251Z" stroke="url(#paint6_linear_151_4987)" stroke-width="1.15655" mask="url(#path-1-outside-1_151_4987)"/>
<path d="M517.084 81.9585C511.173 81.9585 506 80.6249 501.567 77.9579C497.134 75.2909 493.686 71.6763 491.223 67.1143C488.76 62.5523 487.528 57.499 487.528 51.9543C487.528 46.1992 488.76 41.1108 491.223 36.6891C493.756 32.1973 497.169 28.6529 501.462 26.0561C505.825 23.4592 510.68 22.1608 516.028 22.1608C520.532 22.1608 524.472 22.8977 527.85 24.3716C531.298 25.8455 534.219 27.8809 536.611 30.4777C539.004 33.0746 540.833 36.0574 542.1 39.4263C543.367 42.725 544 46.3044 544 50.1646C544 51.1472 543.93 52.1649 543.789 53.2177C543.719 54.2705 543.543 55.1829 543.261 55.9549H498.928V45.4271H535.45L528.906 50.3752C529.539 47.1467 529.363 44.2691 528.378 41.7424C527.463 39.2158 525.915 37.2155 523.734 35.7416C521.622 34.2677 519.054 33.5308 516.028 33.5308C513.143 33.5308 510.575 34.2677 508.323 35.7416C506.071 37.1453 504.347 39.2509 503.15 42.0583C502.025 44.7955 501.602 48.1293 501.884 52.0596C501.602 55.5689 502.06 58.6921 503.256 61.4293C504.523 64.0964 506.352 66.1668 508.745 67.6407C511.208 69.1146 514.023 69.8515 517.189 69.8515C520.356 69.8515 523.03 69.1848 525.211 67.8513C527.463 66.5177 529.222 64.728 530.489 62.4821L541.678 67.9565C540.552 70.6938 538.793 73.1151 536.4 75.2207C534.008 77.3262 531.158 78.9756 527.85 80.1687C524.613 81.3619 521.024 81.9585 517.084 81.9585Z" stroke="url(#paint7_linear_151_4987)" stroke-width="1.15655" mask="url(#path-1-outside-1_151_4987)"/>
</g>
<defs>
<linearGradient id="paint0_linear_151_4987" x1="19.5818" y1="0.999965" x2="475.847" y2="191.053" gradientUnits="userSpaceOnUse">
<stop stop-color="#0079EA"/>
<stop offset="1" stop-color="#00DBC7"/>
</linearGradient>
<linearGradient id="paint1_linear_151_4987" x1="19.5818" y1="0.999965" x2="475.847" y2="191.053" gradientUnits="userSpaceOnUse">
<stop stop-color="#0079EA"/>
<stop offset="1" stop-color="#00DBC7"/>
</linearGradient>
<linearGradient id="paint2_linear_151_4987" x1="19.5818" y1="0.999965" x2="475.847" y2="191.053" gradientUnits="userSpaceOnUse">
<stop stop-color="#0079EA"/>
<stop offset="1" stop-color="#00DBC7"/>
</linearGradient>
<linearGradient id="paint3_linear_151_4987" x1="19.5818" y1="0.999965" x2="475.847" y2="191.053" gradientUnits="userSpaceOnUse">
<stop stop-color="#0079EA"/>
<stop offset="1" stop-color="#00DBC7"/>
</linearGradient>
<linearGradient id="paint4_linear_151_4987" x1="19.5818" y1="0.999965" x2="475.847" y2="191.053" gradientUnits="userSpaceOnUse">
<stop stop-color="#0079EA"/>
<stop offset="1" stop-color="#00DBC7"/>
</linearGradient>
<linearGradient id="paint5_linear_151_4987" x1="19.5818" y1="0.999965" x2="475.847" y2="191.053" gradientUnits="userSpaceOnUse">
<stop stop-color="#0079EA"/>
<stop offset="1" stop-color="#00DBC7"/>
</linearGradient>
<linearGradient id="paint6_linear_151_4987" x1="19.5818" y1="0.999965" x2="475.847" y2="191.053" gradientUnits="userSpaceOnUse">
<stop stop-color="#0079EA"/>
<stop offset="1" stop-color="#00DBC7"/>
</linearGradient>
<linearGradient id="paint7_linear_151_4987" x1="19.5818" y1="0.999965" x2="475.847" y2="191.053" gradientUnits="userSpaceOnUse">
<stop stop-color="#0079EA"/>
<stop offset="1" stop-color="#00DBC7"/>
</linearGradient>
</defs>
</svg>
